<svg xmlns="http://www.w3.org/2000/svg" viewBox="0 0 200 51.296">
  <defs>
    <style>
      .cls-1 {
        fill: #8a42e1;
      }
    </style>
  </defs>
  <g id="HACO-logo-purple" transform="translate(0 0.04)">
    <path id="Path_13" data-name="Path 13" class="cls-1" d="M787.229,2282.3v14.21h21.689V2282.3a6.64,6.64,0,0,1,1.37-4.568,4.623,4.623,0,0,1,3.6-1.524,4.789,4.789,0,0,1,3.671,1.505,6.522,6.522,0,0,1,1.4,4.585v39.08a6.535,6.535,0,0,1-1.421,4.6,4.784,4.784,0,0,1-3.654,1.524,4.58,4.58,0,0,1-3.621-1.539,6.768,6.768,0,0,1-1.353-4.587V2304.7H787.229v16.677a6.535,6.535,0,0,1-1.421,4.6,4.784,4.784,0,0,1-3.654,1.524,4.579,4.579,0,0,1-3.62-1.539,6.768,6.768,0,0,1-1.354-4.587V2282.3a6.754,6.754,0,0,1,1.336-4.568,4.6,4.6,0,0,1,3.637-1.524,4.79,4.79,0,0,1,3.671,1.505A6.522,6.522,0,0,1,787.229,2282.3Z" transform="translate(-777.18 -2276.25)"/>
    <path id="Path_14" data-name="Path 14" class="cls-1" d="M1873.751,2321.11l-2.368-6.225h-20.166l-2.368,6.361a22.156,22.156,0,0,1-2.369,5.025,3.769,3.769,0,0,1-3.214,1.3,4.717,4.717,0,0,1-3.35-1.386,4.241,4.241,0,0,1-1.455-3.146,7.016,7.016,0,0,1,.338-2.1q.338-1.083,1.117-3.012l12.688-32.21q.541-1.386,1.3-3.333a16.815,16.815,0,0,1,1.624-3.231,6.6,6.6,0,0,1,2.267-2.081,6.945,6.945,0,0,1,3.468-.8,7.023,7.023,0,0,1,3.5.8,6.719,6.719,0,0,1,2.267,2.047,14.352,14.352,0,0,1,1.455,2.69q.592,1.438,1.506,3.841l12.959,32.006a16.07,16.07,0,0,1,1.525,5.313,4.4,4.4,0,0,1-1.438,3.164,4.721,4.721,0,0,1-3.468,1.437,4.51,4.51,0,0,1-2.032-.423,4.171,4.171,0,0,1-1.421-1.15,10.55,10.55,0,0,1-1.235-2.233Q1874.225,2322.262,1873.751,2321.11Zm-19.9-13.77h14.82l-7.478-20.47Z" transform="translate(-1789.433 -2276.317)"/>
    <path id="Path_15" data-name="Path 15" class="cls-1" d="M2996,2311.013a13.231,13.231,0,0,1-1.168,5.127,18.467,18.467,0,0,1-3.672,5.414,18.735,18.735,0,0,1-6.395,4.313,22.975,22.975,0,0,1-9.068,1.658,31.687,31.687,0,0,1-7.139-.744,20.09,20.09,0,0,1-5.837-2.317,19.675,19.675,0,0,1-4.822-4.145,24.65,24.65,0,0,1-3.35-5.227,27.216,27.216,0,0,1-2.078-6.176,33.655,33.655,0,0,1-.693-6.97,30.911,30.911,0,0,1,1.742-10.726,22.872,22.872,0,0,1,4.989-8.1,21.766,21.766,0,0,1,7.613-5.128,24.656,24.656,0,0,1,9.305-1.76,23.251,23.251,0,0,1,10.726,2.4,19.409,19.409,0,0,1,7.206,5.938,11.729,11.729,0,0,1,2.5,6.682,4.353,4.353,0,0,1-1.218,3.045,3.866,3.866,0,0,1-2.943,1.321,4.064,4.064,0,0,1-2.893-.914,12.642,12.642,0,0,1-2.148-3.148,15.135,15.135,0,0,0-4.62-5.515,11.276,11.276,0,0,0-6.548-1.827,11.868,11.868,0,0,0-9.863,4.7q-3.672,4.7-3.671,13.365a24.84,24.84,0,0,0,1.624,9.627,12.149,12.149,0,0,0,4.605,5.736,12.7,12.7,0,0,0,6.97,1.894,12.235,12.235,0,0,0,7.325-2.148,12.972,12.972,0,0,0,4.518-6.31,10.687,10.687,0,0,1,1.59-3.2,3.593,3.593,0,0,1,3.045-1.236,4.258,4.258,0,0,1,3.079,1.252A4.155,4.155,0,0,1,2996,2311.013Z" transform="translate(-2851.321 -2276.269)"/>
    <path id="Path_16" data-name="Path 16" class="cls-1" d="M4078.886,2276.25a26.488,26.488,0,0,1,13.247,3.129,20.292,20.292,0,0,1,8.374,8.9,30.332,30.332,0,0,1,2.842,13.551,33.148,33.148,0,0,1-1.556,10.455,22.626,22.626,0,0,1-4.67,8.154,20.389,20.389,0,0,1-7.646,5.278,30.151,30.151,0,0,1-20.809-.05,20.662,20.662,0,0,1-7.681-5.3,22.611,22.611,0,0,1-4.653-8.223,33.211,33.211,0,0,1-1.573-10.386,32.076,32.076,0,0,1,1.641-10.489,22.5,22.5,0,0,1,4.754-8.121,20.563,20.563,0,0,1,7.579-5.127A27.2,27.2,0,0,1,4078.886,2276.25Zm14.279,25.512a23.283,23.283,0,0,0-1.759-9.44,13.135,13.135,0,0,0-5.025-6.04,13.809,13.809,0,0,0-7.495-2.047,13.564,13.564,0,0,0-5.566,1.134,12.229,12.229,0,0,0-4.4,3.3,15.769,15.769,0,0,0-2.911,5.532,25,25,0,0,0-1.065,7.563,25.623,25.623,0,0,0,1.065,7.646,15.7,15.7,0,0,0,3.012,5.667,12.658,12.658,0,0,0,4.466,3.366,14.108,14.108,0,0,0,12.621-.812,13.332,13.332,0,0,0,5.144-5.954,23.03,23.03,0,0,0,1.911-9.914Z" transform="translate(-3903.348 -2276.288)"/>
  </g>
</svg>
